<svg style="fill: var(--nw-icon-color)" width="210" height="210" viewBox="0 0 210 210" fill="none" xmlns="http://www.w3.org/2000/svg">
    <path fill-rule="evenodd" clip-rule="evenodd"
        d="M176.128 32.0396C178.07 20.7784 180.922 13.6965 184.08 13.6836H184.086C189.975 13.7033 194.749 38.2616 194.749 68.583C194.749 98.9035 189.969 123.482 184.073 123.482C181.656 123.482 179.426 119.308 177.63 112.315C174.793 137.915 168.904 155.514 162.087 155.514C156.812 155.514 152.079 144.942 148.901 128.27C146.731 159.977 141.27 182.473 134.886 182.473C130.88 182.473 127.228 173.559 124.524 159.044C121.273 189.006 113.761 210 105.002 210C96.2424 210 88.7172 189.013 85.4795 159.044C82.7954 173.559 79.1432 182.473 75.1174 182.473C68.7342 182.473 63.2866 159.977 61.1031 128.27C57.9251 144.942 53.2043 155.514 47.9162 155.514C41.1065 155.514 35.2104 137.921 32.3735 112.315C30.5909 119.329 28.3477 123.482 25.9306 123.482C20.0352 123.482 15.2546 98.9035 15.2546 68.5822C15.2546 38.2624 20.0344 13.6829 25.9306 13.6829C29.0949 13.6829 31.9265 20.7845 33.8891 32.0396C37.0338 12.621 42.1411 0 47.9162 0C54.7736 0 60.7159 17.8485 63.5263 43.7667C66.2777 24.9032 70.4503 12.8774 75.1242 12.8774C81.6738 12.8774 87.2417 36.5297 89.3049 69.5215C93.1839 52.6063 98.7995 41.9947 105.016 41.9947C111.231 41.9947 116.846 52.6131 120.719 69.5223C122.789 36.5297 128.35 12.8774 134.9 12.8774C139.566 12.8774 143.733 24.9025 146.497 43.7667C149.302 17.8485 155.244 0 162.1 0C167.856 0 172.983 12.6286 176.128 32.0396ZM0 63.183C0 49.6287 2.70983 38.6383 6.05495 38.6383C9.40007 38.6383 12.1107 49.6287 12.1107 63.183C12.1107 76.7366 9.40007 87.7278 6.05495 87.7278C2.70983 87.7278 0 76.7366 0 63.183ZM197.889 63.183C197.889 49.6287 200.599 38.6383 203.944 38.6383C207.289 38.6383 210 49.6287 210 63.183C210 76.7366 207.289 87.7278 203.944 87.7278C200.599 87.7278 197.889 76.7366 197.889 63.183Z"
        />
</svg>