<svg width="600" height="600" viewBox="0 0 600 600" fill="none" xmlns="http://www.w3.org/2000/svg">
<path d="M545.333 300.167C545.333 164.765 435.569 55 300.167 55C164.765 55 55 164.765 55 300.167C55 422.536 144.654 523.963 261.859 542.355V371.035H199.61V300.167H261.859V246.154C261.859 184.708 298.461 150.768 354.462 150.768C381.286 150.768 409.343 155.557 409.343 155.557V215.891H378.428C347.972 215.891 338.474 234.789 338.474 254.178V300.167H406.47L395.6 371.035H338.474V542.355C455.679 523.963 545.333 422.536 545.333 300.167Z"/>
<path d="M395.599 371.035L406.469 300.167H338.474V254.177C338.474 234.789 347.972 215.891 378.427 215.891H409.342V155.557C409.342 155.557 381.286 150.769 354.462 150.769C298.461 150.769 261.859 184.709 261.859 246.154V300.167H199.61V371.035H261.859V542.355C274.532 544.341 287.339 545.337 300.167 545.333C313.199 545.333 325.992 544.314 338.474 542.355V371.035H395.599Z" class="inverse"/>
</svg>
