<svg width="176" height="193" viewBox="0 0 176 193" fill="none" xmlns="http://www.w3.org/2000/svg">
<path d="M81.375 91.875L0.525002 176.4C3.15 185.325 11.55 192.15 21.525 192.15C25.725 192.15 29.4 191.1 32.55 189L123.9 137.025L81.375 91.875Z" fill="#EA4335"/>
<path d="M163.275 77.175L123.9 54.6L79.8 93.45L124.425 137.025L163.8 114.975C170.625 111.3 175.35 103.95 175.35 96.075C174.825 88.2 170.1 80.85 163.275 77.175Z" fill="#FBBC04"/>
<path d="M0.525002 15.75C1.96695e-06 17.325 0 19.425 0 21.525V171.15C0 173.25 1.96695e-06 174.825 0.525002 176.925L84.525 94.5L0.525002 15.75Z" fill="#4285F4"/>
<path d="M81.9 96.075L123.9 54.6L33.075 3.15C29.925 1.05 25.725 0 21.525 0C11.55 0 2.625 6.825 0.525002 15.75L81.9 96.075Z" fill="#34A853"/>
</svg>
