<svg width="600" height="600" viewBox="0 0 600 600" fill="none" xmlns="http://www.w3.org/2000/svg">
<g clip-path="url(#clip0_12_16)">
<path d="M340.862 201.897C340.862 237.939 326.488 272.505 300.903 297.991C275.317 323.476 240.615 337.794 204.431 337.794C168.247 337.794 133.546 323.476 107.96 297.991C82.374 272.505 68 237.939 68 201.897C68 165.855 82.374 131.289 107.96 105.803C133.546 80.3177 168.247 66 204.431 66C240.615 66 275.317 80.3177 300.903 105.803C326.488 131.289 340.862 165.855 340.862 201.897Z" fill="url(#paint0_linear_12_16)"/>
<path d="M531 397.056C531 414.909 527.47 432.586 520.611 449.08C513.753 465.573 503.7 480.559 491.027 493.183C478.353 505.807 463.308 515.82 446.75 522.652C430.192 529.484 412.445 533 394.522 533C358.326 533 323.612 518.677 298.018 493.183C272.423 467.689 258.044 433.111 258.044 397.056C258.044 361.002 272.423 326.424 298.018 300.93C323.612 275.435 358.326 261.113 394.522 261.113C412.445 261.113 430.192 264.629 446.75 271.461C463.308 278.292 478.353 288.306 491.027 300.93C503.7 313.553 513.753 328.539 520.611 345.033C527.47 361.526 531 379.204 531 397.056Z" fill="url(#paint1_linear_12_16)"/>
<path opacity="0.05" fill-rule="evenodd" clip-rule="evenodd" d="M68.4984 213.525C70.6175 239.202 79.9734 263.753 95.4819 284.334C110.99 304.914 132.017 320.682 156.124 329.809C180.232 338.937 206.434 341.05 231.694 335.905C256.955 330.76 280.239 318.567 298.85 300.739C317.46 282.911 330.635 260.177 336.848 235.172C343.06 210.168 342.056 183.916 333.951 159.458C325.847 135 310.973 113.338 291.055 96.9824C271.137 80.6262 246.989 70.2455 221.409 67.043C186.677 78.6543 154.95 97.8127 128.511 123.141C102.072 148.468 81.5762 179.336 68.4984 213.525Z" fill="black"/>
<path opacity="0.05" fill-rule="evenodd" clip-rule="evenodd" d="M530.642 387.296C528.86 361.306 519.667 336.37 504.151 315.438C488.634 294.505 467.444 278.452 443.085 269.177C418.727 259.901 392.22 257.792 366.701 263.099C341.181 268.406 317.715 280.906 299.081 299.121C280.446 317.337 267.421 340.505 261.547 365.885C255.672 391.266 257.195 417.797 265.933 442.34C274.672 466.883 290.261 488.411 310.858 504.378C331.454 520.345 356.195 530.083 382.155 532.44C415.938 520.418 446.709 501.214 472.345 476.152C497.98 451.091 517.87 420.785 530.642 387.296Z" fill="black"/>
<path opacity="0.1" fill-rule="evenodd" clip-rule="evenodd" d="M74.8846 244.596C82.0506 266.505 94.6594 286.239 111.532 301.953C128.404 317.667 148.988 328.848 171.36 334.45C193.732 340.052 217.159 339.892 239.452 333.985C261.745 328.078 282.175 316.617 298.831 300.674C315.487 284.731 327.824 264.826 334.69 242.822C341.556 220.818 342.725 197.433 338.089 174.854C333.453 152.275 323.162 131.241 308.18 113.717C293.198 96.1938 274.014 82.7541 252.421 74.655C209.87 83.5146 170.665 104.143 139.276 134.19C107.886 164.237 85.5749 202.492 74.8846 244.596Z" fill="black"/>
<path opacity="0.1" fill-rule="evenodd" clip-rule="evenodd" d="M524.442 355.353C517.382 333.186 504.763 313.192 487.786 297.276C470.809 281.36 450.039 270.05 427.453 264.422C404.867 258.795 381.215 259.037 358.749 265.126C336.283 271.215 315.749 282.948 299.102 299.209C282.456 315.47 270.249 335.717 263.644 358.024C257.04 380.332 256.257 403.957 261.37 426.653C266.483 449.348 277.322 470.358 292.856 487.684C308.389 505.01 328.101 518.076 350.115 525.637C392.121 516.215 430.675 495.297 461.463 465.224C492.251 435.15 514.057 397.108 524.442 355.353Z" fill="black"/>
<path opacity="0.1" fill-rule="evenodd" clip-rule="evenodd" d="M79.9001 257.486C88.777 277.475 102.338 295.036 119.438 308.683C136.537 322.331 156.673 331.664 178.142 335.895C199.612 340.126 221.786 339.13 242.789 332.99C263.792 326.851 283.008 315.749 298.813 300.623C314.618 285.497 326.548 266.791 333.594 246.086C340.64 225.381 342.595 203.285 339.295 181.665C335.995 160.045 327.536 139.537 314.633 121.873C301.729 104.209 284.762 89.9093 265.162 80.1812C219.836 87.2321 177.767 108.015 144.637 139.722C111.506 171.43 88.91 212.535 79.9001 257.486Z" fill="black"/>
<path opacity="0.1" fill-rule="evenodd" clip-rule="evenodd" d="M519.411 342.199C510.58 321.978 496.969 304.201 479.747 290.396C462.524 276.592 442.207 267.172 420.538 262.945C398.87 258.719 376.499 259.813 355.347 266.133C334.195 272.454 314.894 283.811 299.103 299.23C283.312 314.65 271.502 333.67 264.688 354.656C257.874 375.643 256.26 397.969 259.985 419.716C263.709 441.464 272.66 461.983 286.069 479.511C299.479 497.038 316.945 511.051 336.968 520.344C381.897 512.715 423.43 491.575 456.027 459.746C488.624 427.917 510.736 386.912 519.411 342.199Z" fill="black"/>
<path d="M515.611 300.512C515.611 328.778 510.022 356.766 499.162 382.881C488.303 408.995 472.386 432.723 452.32 452.71C432.255 472.697 408.433 488.551 382.216 499.368C356 510.185 327.9 515.752 299.523 515.752C271.146 515.752 243.047 510.185 216.83 499.368C190.613 488.551 166.792 472.697 146.726 452.71C126.661 432.723 110.744 408.995 99.8846 382.881C89.0252 356.766 83.4359 328.778 83.4359 300.512C83.4359 272.246 89.0252 244.257 99.8846 218.143C110.744 192.029 126.661 168.301 146.726 148.314C166.792 128.327 190.613 112.473 216.83 101.656C243.047 90.8388 271.146 85.2715 299.523 85.2715C327.9 85.2715 356 90.8388 382.216 101.656C408.433 112.473 432.255 128.327 452.32 148.314C472.386 168.301 488.303 192.029 499.162 218.143C510.022 244.257 515.611 272.246 515.611 300.512Z" fill="url(#paint2_linear_12_16)"/>
<path fill-rule="evenodd" clip-rule="evenodd" d="M238.761 293.04C230.029 287.296 222.742 279.614 217.468 270.593C212.377 261.062 209.865 250.368 210.179 239.568C209.793 225.863 214.473 212.496 223.325 202.022C232.524 191.503 244.348 183.607 257.593 179.139C271.997 174.053 287.175 171.498 302.452 171.589C312.447 171.494 322.432 172.26 332.296 173.877C339.356 174.967 346.29 176.755 352.996 179.216C359.154 181.3 364.713 184.847 369.195 189.553C372.498 193.425 374.275 198.367 374.195 203.454C374.313 206.097 373.909 208.737 373.005 211.223C372.102 213.71 370.717 215.995 368.931 217.946C367.24 219.745 365.188 221.166 362.908 222.115C360.629 223.065 358.175 223.522 355.706 223.457C352.31 223.429 348.959 222.675 345.878 221.246C338.284 217.85 330.461 214.989 322.467 212.685C315.108 210.746 307.523 209.803 299.913 209.883C289.995 209.518 280.182 212.026 271.658 217.106C268.06 219.29 265.116 222.4 263.132 226.111C261.149 229.821 260.198 233.996 260.381 238.199C260.328 243.717 262.429 249.038 266.237 253.034C270.763 257.728 276.11 261.553 282.016 264.319C288.631 267.599 298.495 271.947 311.61 277.364C313.063 277.824 314.479 278.391 315.847 279.061C328.646 284.121 340.916 290.424 352.482 297.881C361.617 303.833 369.319 311.733 375.036 321.013C380.666 330.767 383.485 341.887 383.183 353.143C383.655 366.925 379.704 380.496 371.906 391.873C363.965 402.644 352.979 410.793 340.364 415.269C325.16 420.699 309.093 423.315 292.95 422.99C270.768 423.766 248.691 419.592 228.325 410.771C223.118 408.453 218.553 404.906 215.023 400.434C212.092 396.337 210.572 391.398 210.693 386.362C210.547 383.706 210.98 381.05 211.962 378.577C212.943 376.105 214.45 373.875 216.378 372.041C220.42 368.504 225.667 366.653 231.035 366.873C237.016 366.954 242.891 368.465 248.169 371.278C254.732 374.557 259.908 377.017 263.698 378.657C268.027 380.468 272.51 381.885 277.094 382.891C282.746 384.13 288.52 384.725 294.305 384.665C304.537 385.396 314.72 382.683 323.23 376.96C326.416 374.468 328.963 371.254 330.658 367.583C332.354 363.913 333.15 359.891 332.981 355.851C332.991 350.124 330.806 344.609 326.875 340.44C321.681 335.081 315.6 330.658 308.9 327.364C300.977 323.193 289.835 318.107 275.474 312.109C262.63 306.994 250.331 300.606 238.761 293.04Z" fill="white"/>
</g>
<defs>
<linearGradient id="paint0_linear_12_16" x1="183.154" y1="67.6501" x2="225.658" y2="336.152" gradientUnits="userSpaceOnUse">
<stop offset="0.012" stop-color="#00B7F0"/>
<stop offset="0.339" stop-color="#009DE5"/>
<stop offset="0.755" stop-color="#0082D9"/>
<stop offset="1" stop-color="#0078D4"/>
</linearGradient>
<linearGradient id="paint1_linear_12_16" x1="276.393" y1="465.207" x2="512.564" y2="328.781" gradientUnits="userSpaceOnUse">
<stop stop-color="#0078D4"/>
<stop offset="0.37" stop-color="#007AD5"/>
<stop offset="0.573" stop-color="#0082D9"/>
<stop offset="0.735" stop-color="#0090DF"/>
<stop offset="0.875" stop-color="#00A3E7"/>
<stop offset="1" stop-color="#00BCF2"/>
</linearGradient>
<linearGradient id="paint2_linear_12_16" x1="215.194" y1="154.559" x2="430.587" y2="527.852" gradientUnits="userSpaceOnUse">
<stop stop-color="#00B7F0"/>
<stop offset="1" stop-color="#007CC1"/>
</linearGradient>
<clipPath id="clip0_12_16">
<rect width="463" height="467" fill="white" transform="translate(68 66)"/>
</clipPath>
</defs>
</svg>
