<svg width="600" height="600" viewBox="0 0 600 600" xmlns="http://www.w3.org/2000/svg">
<path d="M557.234 180.13C551.052 156.855 532.842 138.526 509.714 132.305C467.803 121 299.732 121 299.732 121C299.732 121 131.662 121 89.7493 132.305C66.6215 138.526 48.4065 156.855 42.2295 180.13C31 222.315 31 310.335 31 310.335C31 310.335 31 398.35 42.2295 440.54C48.4065 463.817 66.6215 482.142 89.747 488.369C131.66 499.67 299.729 499.67 299.729 499.67C299.729 499.67 467.801 499.67 509.712 488.369C532.839 482.144 551.05 463.817 557.231 440.543C568.463 398.352 568.463 310.337 568.463 310.337C568.463 310.337 568.463 222.317 557.231 180.132"/>
<path d="M244.764 390.249L385.237 310.34L244.764 230.421V390.249Z" class="inverse"/>
</svg>
