<svg width="600" height="600" viewBox="0 0 600 600" fill="none" xmlns="http://www.w3.org/2000/svg">
<path d="M393.33 113.33C418.063 113.404 441.761 123.262 459.25 140.75C476.738 158.239 486.596 181.937 486.67 206.67V393.33C486.596 418.063 476.738 441.761 459.25 459.25C441.761 476.738 418.063 486.596 393.33 486.67H206.67C181.937 486.596 158.239 476.738 140.75 459.25C123.262 441.761 113.404 418.063 113.33 393.33V206.67C113.404 181.937 123.262 158.239 140.75 140.75C158.239 123.262 181.937 113.404 206.67 113.33H393.33ZM393.33 76H206.67C134.8 76 76 134.8 76 206.67V393.33C76 465.2 134.8 524 206.67 524H393.33C465.2 524 524 465.2 524 393.33V206.67C524 134.8 465.2 76 393.33 76Z" fill="black"/>
<path d="M421.33 206.67C415.792 206.67 410.379 205.028 405.774 201.951C401.169 198.874 397.581 194.501 395.461 189.385C393.342 184.269 392.788 178.639 393.868 173.207C394.948 167.776 397.615 162.787 401.531 158.871C405.447 154.955 410.436 152.288 415.867 151.208C421.299 150.128 426.929 150.682 432.045 152.801C437.161 154.921 441.534 158.509 444.611 163.114C447.688 167.719 449.33 173.132 449.33 178.67C449.338 182.349 448.619 185.994 447.215 189.394C445.81 192.795 443.748 195.885 441.147 198.487C438.545 201.088 435.455 203.15 432.054 204.555C428.654 205.959 425.009 206.678 421.33 206.67Z" fill="black"/>
<path d="M300 225.33C314.768 225.33 329.205 229.709 341.484 237.914C353.764 246.119 363.334 257.781 368.986 271.425C374.638 285.069 376.116 300.083 373.235 314.567C370.354 329.052 363.242 342.357 352.8 352.8C342.357 363.242 329.052 370.354 314.567 373.235C300.083 376.116 285.069 374.638 271.425 368.986C257.781 363.334 246.119 353.764 237.914 341.484C229.709 329.205 225.33 314.768 225.33 300C225.351 280.203 233.225 261.222 247.224 247.224C261.222 233.225 280.203 225.351 300 225.33ZM300 188C277.848 188 256.194 194.569 237.776 206.875C219.358 219.182 205.003 236.674 196.525 257.139C188.048 277.605 185.831 300.124 190.152 321.85C194.474 343.576 205.141 363.532 220.804 379.196C236.468 394.859 256.424 405.526 278.15 409.848C299.876 414.17 322.395 411.952 342.861 403.475C363.326 394.998 380.818 380.642 393.125 362.224C405.431 343.806 412 322.152 412 300C412 270.296 400.2 241.808 379.196 220.804C358.192 199.8 329.704 188 300 188Z" fill="black"/>
<path d="M300.48 55C198.028 55 168.065 55.1057 162.24 55.5888C141.215 57.3365 128.132 60.6469 113.879 67.7433C102.895 73.1977 94.2319 79.5203 85.6823 88.3833C70.1117 104.546 60.675 124.431 57.2589 148.068C55.5981 159.543 55.1149 161.884 55.0168 220.497C54.979 240.035 55.0168 265.748 55.0168 300.237C55.0168 402.606 55.13 432.54 55.6207 438.353C57.3193 458.811 60.5278 471.683 67.3222 485.762C80.3071 512.714 105.107 532.946 134.323 540.495C144.439 543.1 155.612 544.534 169.956 545.214C176.033 545.478 237.975 545.667 299.956 545.667C361.936 545.667 423.916 545.591 429.842 545.289C446.451 544.508 456.095 543.213 466.759 540.458C481.245 536.743 494.746 529.91 506.318 520.437C517.891 510.964 527.256 499.079 533.759 485.612C540.421 471.872 543.8 458.509 545.329 439.119C545.661 434.891 545.8 367.487 545.8 300.173C545.8 232.848 545.649 165.568 545.317 161.34C543.77 141.636 540.391 128.387 533.514 114.383C527.871 102.92 521.605 94.3586 512.508 85.6051C496.277 70.0987 476.422 60.662 452.758 57.2497C441.295 55.5926 439.011 55.1019 380.352 55H300.48Z" fill="url(#paint0_radial_12_13)"/>
<path d="M300.48 55C198.028 55 168.065 55.1057 162.24 55.5888C141.215 57.3365 128.132 60.6469 113.879 67.7433C102.895 73.1977 94.2319 79.5203 85.6823 88.3833C70.1117 104.546 60.675 124.431 57.2589 148.068C55.5981 159.543 55.1149 161.884 55.0168 220.497C54.979 240.035 55.0168 265.748 55.0168 300.237C55.0168 402.606 55.13 432.54 55.6207 438.353C57.3193 458.811 60.5278 471.683 67.3222 485.762C80.3071 512.714 105.107 532.946 134.323 540.495C144.439 543.1 155.612 544.534 169.956 545.214C176.033 545.478 237.975 545.667 299.956 545.667C361.936 545.667 423.916 545.591 429.842 545.289C446.451 544.508 456.095 543.213 466.759 540.458C481.245 536.743 494.746 529.91 506.318 520.437C517.891 510.964 527.256 499.079 533.759 485.612C540.421 471.872 543.8 458.509 545.329 439.119C545.661 434.891 545.8 367.487 545.8 300.173C545.8 232.848 545.649 165.568 545.317 161.34C543.77 141.636 540.391 128.387 533.514 114.383C527.871 102.92 521.605 94.3586 512.508 85.6051C496.277 70.0987 476.422 60.662 452.758 57.2497C441.295 55.5926 439.011 55.1019 380.352 55H300.48Z" fill="url(#paint1_radial_12_13)"/>
<path d="M300.367 119.169C251.161 119.169 244.985 119.385 225.659 120.264C206.37 121.147 193.204 124.201 181.684 128.682C169.767 133.309 159.659 139.5 149.588 149.574C139.509 159.645 133.319 169.754 128.676 181.667C124.184 193.191 121.127 206.361 120.258 225.642C119.398 244.968 119.171 251.147 119.171 300.354C119.171 349.561 119.39 355.717 120.266 375.044C121.153 394.332 124.207 407.498 128.684 419.019C133.315 430.935 139.506 441.044 149.58 451.115C159.647 461.193 169.756 467.399 181.665 472.026C193.193 476.507 206.363 479.561 225.647 480.444C244.974 481.323 251.145 481.539 300.348 481.539C349.559 481.539 355.715 481.323 375.042 480.444C394.33 479.561 407.511 476.507 419.039 472.026C430.952 467.399 441.046 461.193 451.113 451.115C461.191 441.044 467.382 430.935 472.024 419.022C476.479 407.498 479.536 394.328 480.442 375.047C481.31 355.721 481.537 349.561 481.537 300.354C481.537 251.147 481.31 244.972 480.442 225.646C479.536 206.357 476.479 193.191 472.024 181.671C467.382 169.754 461.191 159.645 451.113 149.574C441.034 139.496 430.956 133.306 419.028 128.682C407.478 124.201 394.304 121.147 375.015 120.264C355.689 119.385 349.536 119.169 300.314 119.169H300.367ZM284.113 151.82C288.938 151.813 294.32 151.82 300.367 151.82C348.744 151.82 354.477 151.994 373.581 152.862C391.246 153.67 400.834 156.622 407.221 159.102C415.676 162.386 421.704 166.311 428.042 172.653C434.383 178.994 438.309 185.034 441.601 193.489C444.081 199.868 447.036 209.456 447.84 227.121C448.708 246.221 448.897 251.959 448.897 300.312C448.897 348.666 448.708 354.404 447.84 373.503C447.032 391.169 444.081 400.757 441.601 407.136C438.317 415.591 434.383 421.612 428.042 427.949C421.701 434.291 415.68 438.217 407.221 441.501C400.842 443.992 391.246 446.936 373.581 447.744C354.481 448.612 348.744 448.801 300.367 448.801C251.987 448.801 246.253 448.612 227.154 447.744C209.488 446.929 199.9 443.977 193.51 441.497C185.055 438.213 179.015 434.287 172.674 427.946C166.332 421.604 162.407 415.58 159.115 407.121C156.635 400.742 153.679 391.154 152.875 373.488C152.007 354.389 151.834 348.651 151.834 300.267C151.834 251.883 152.007 246.176 152.875 227.076C153.683 209.411 156.635 199.823 159.115 193.436C162.399 184.981 166.332 178.941 172.674 172.6C179.015 166.259 185.055 162.333 193.51 159.041C199.897 156.55 209.488 153.606 227.154 152.794C243.868 152.039 250.345 151.813 284.113 151.775V151.82ZM397.082 181.905C392.782 181.905 388.578 183.18 385.002 185.569C381.426 187.959 378.64 191.355 376.994 195.328C375.349 199.301 374.919 203.673 375.758 207.891C376.598 212.109 378.669 215.983 381.711 219.023C384.752 222.064 388.627 224.134 392.845 224.972C397.063 225.81 401.435 225.378 405.408 223.732C409.38 222.085 412.775 219.297 415.164 215.721C417.552 212.144 418.826 207.94 418.824 203.639C418.824 191.636 409.086 181.897 397.082 181.897V181.905ZM300.367 207.308C248.983 207.308 207.321 248.969 207.321 300.354C207.321 351.739 248.983 393.381 300.367 393.381C351.752 393.381 393.402 351.739 393.402 300.354C393.402 248.969 351.752 207.308 300.367 207.308ZM300.367 239.959C333.72 239.959 360.762 266.997 360.762 300.354C360.762 333.707 333.72 360.749 300.367 360.749C267.01 360.749 239.972 333.707 239.972 300.354C239.972 266.997 267.01 239.959 300.367 239.959Z" fill="white"/>
<defs>
<radialGradient id="paint0_radial_12_13" cx="0" cy="0" r="1" gradientUnits="userSpaceOnUse" gradientTransform="translate(185.369 583.458) rotate(-90) scale(486.287 452.408)">
<stop stop-color="#FFDD55"/>
<stop offset="0.1" stop-color="#FFDD55"/>
<stop offset="0.5" stop-color="#FF543E"/>
<stop offset="1" stop-color="#C837AB"/>
</radialGradient>
<radialGradient id="paint1_radial_12_13" cx="0" cy="0" r="1" gradientUnits="userSpaceOnUse" gradientTransform="translate(-27.2117 90.3468) rotate(78.6776) scale(217.375 896.252)">
<stop stop-color="#3771C8"/>
<stop offset="0.128" stop-color="#3771C8"/>
<stop offset="1" stop-color="#6600FF" stop-opacity="0"/>
</radialGradient>
</defs>
</svg>
