<svg width="600" height="600" viewBox="0 0 600 600" fill="none" xmlns="http://www.w3.org/2000/svg">
<path d="M300.167 550.333C434.464 550.333 543.333 441.464 543.333 307.167C543.333 172.869 434.464 64 300.167 64C165.869 64 57 172.869 57 307.167C57 441.464 165.869 550.333 300.167 550.333Z" fill="url(#paint0_linear_13_46)"/>
<path d="M255.586 418.618C247.708 418.618 249.047 415.643 246.33 408.142L223.164 331.903L401.486 226.111" fill="#C8DAEA"/>
<path d="M255.586 418.618C261.665 418.618 264.35 415.838 267.745 412.539L300.167 381.012L259.724 356.625" fill="#A9C9DD"/>
<path d="M259.72 356.631L357.716 429.032C368.9 435.202 376.969 432.007 379.755 418.651L419.645 230.677C423.728 214.304 413.404 206.875 402.704 211.732L168.474 302.05C152.486 308.464 152.581 317.384 165.56 321.358L225.669 340.12L364.827 252.327C371.396 248.343 377.427 250.483 372.479 254.876" fill="url(#paint1_linear_13_46)"/>
<defs>
<linearGradient id="paint0_linear_13_46" x1="381.384" y1="145.218" x2="259.801" y2="428.75" gradientUnits="userSpaceOnUse">
<stop stop-color="#37AEE2"/>
<stop offset="1" stop-color="#1E96C8"/>
</linearGradient>
<linearGradient id="paint1_linear_13_46" x1="330.65" y1="307.186" x2="368.599" y2="393.65" gradientUnits="userSpaceOnUse">
<stop stop-color="#EFF7FC"/>
<stop offset="1" stop-color="white"/>
</linearGradient>
</defs>
</svg>
