<svg width="600" height="600" viewBox="0 0 600 600" fill="none" xmlns="http://www.w3.org/2000/svg">
<path d="M495.807 85.3534C482.554 73.1243 428.995 34.244 309.697 33.7158C309.697 33.7158 169.015 25.2323 100.434 88.1386C62.2579 126.323 48.8283 182.194 47.4117 251.463C45.9951 320.732 44.1624 450.546 169.295 485.745H169.415L169.335 539.455C169.335 539.455 168.534 561.2 182.852 565.634C200.172 571.012 210.336 554.486 226.871 536.67C235.947 526.89 248.48 512.524 257.924 501.543C343.504 508.746 409.323 492.284 416.798 489.851C434.077 484.248 531.854 471.723 547.757 341.917C564.172 208.125 539.818 123.497 495.807 85.3534Z" fill="white"/>
<path d="M467.979 112.381C456.775 102.201 408.41 71.8119 307.496 71.3717C307.496 71.3717 187.998 63.5204 129.99 116.062C97.7046 147.94 86.8281 195.344 85.6356 253.192C84.4431 311.04 78.2645 421.55 184.077 450.946C184.077 450.946 183.661 532.989 183.613 540.2C183.613 545.242 184.413 548.691 187.294 549.404C189.367 549.908 192.472 548.835 195.113 546.202C212.032 529.211 266.199 463.864 266.199 463.864C338.877 468.61 396.702 454.26 402.92 452.227C417.582 447.513 496.887 440.702 510.309 332.289C524.179 220.538 505.211 144.258 467.979 112.381Z" fill="#7360F2"/>
<path fill-rule="evenodd" clip-rule="evenodd" d="M311.747 206.397C311.941 202.676 315.115 199.816 318.836 200.011C332.758 200.737 344.341 204.951 352.591 213.481C360.809 221.977 364.837 233.848 365.544 248.103C365.729 251.825 362.862 254.992 359.14 255.176C355.418 255.361 352.252 252.494 352.067 248.772C351.462 236.569 348.114 228.261 342.891 222.861C337.701 217.494 329.779 214.093 318.133 213.486C314.412 213.292 311.553 210.118 311.747 206.397Z" fill="white"/>
<path fill-rule="evenodd" clip-rule="evenodd" d="M301.52 170.049C301.792 166.332 305.025 163.54 308.741 163.812C337.074 165.886 359.878 175.567 376.49 193.699L376.492 193.702C392.923 211.656 400.732 233.991 400.165 260.188C400.085 263.914 396.999 266.868 393.274 266.788C389.549 266.707 386.594 263.622 386.675 259.896C387.175 236.793 380.381 217.938 366.538 202.812C352.737 187.748 333.445 179.15 307.756 177.27C304.04 176.998 301.248 173.765 301.52 170.049Z" fill="white"/>
<path fill-rule="evenodd" clip-rule="evenodd" d="M289.609 135.495C289.635 131.769 292.677 128.77 296.403 128.796C335.557 129.069 368.652 142.103 395.225 168.007C422.019 194.127 435.27 229.688 435.606 273.853C435.634 277.579 432.636 280.623 428.91 280.651C425.184 280.679 422.141 277.682 422.112 273.956C421.798 232.571 409.486 200.753 385.806 177.669C361.903 154.368 332.226 142.539 296.309 142.289C292.583 142.263 289.583 139.222 289.609 135.495Z" fill="white"/>
<path d="M319.822 338.803C319.822 338.803 329.306 339.604 334.412 333.313L344.368 320.788C349.17 314.577 360.759 310.616 372.107 316.938C380.612 321.789 388.868 327.061 396.846 332.737C404.377 338.275 419.799 351.145 419.847 351.145C427.194 357.347 428.891 366.455 423.889 376.059C423.889 376.115 423.849 376.211 423.849 376.259C418.34 385.81 411.345 394.422 403.128 401.774C403.032 401.822 403.032 401.87 402.944 401.918C395.805 407.883 388.792 411.274 381.903 412.09C380.889 412.268 379.859 412.332 378.83 412.282C375.793 412.311 372.771 411.847 369.882 410.906L369.658 410.577C359.046 407.584 341.327 400.093 311.818 383.814C294.742 374.505 278.485 363.766 263.222 351.713C255.571 345.675 248.274 339.203 241.365 332.329L240.628 331.592L239.892 330.856L239.156 330.12C238.908 329.88 238.668 329.632 238.42 329.383C231.545 322.475 225.073 315.177 219.035 307.526C206.984 292.264 196.245 276.01 186.934 258.938C170.655 229.422 163.164 211.718 160.171 201.09L159.843 200.866C158.904 197.977 158.442 194.955 158.474 191.918C158.418 190.89 158.48 189.859 158.658 188.845C159.517 181.967 162.913 174.948 168.846 167.788C168.894 167.7 168.942 167.7 168.99 167.604C176.34 159.387 184.953 152.395 194.505 146.891C194.553 146.891 194.649 146.843 194.705 146.843C204.309 141.841 213.417 143.538 219.612 150.845C219.66 150.893 232.505 166.315 238.019 173.846C243.696 181.832 248.968 190.096 253.818 198.609C260.141 209.95 256.179 221.562 249.968 226.348L237.443 236.305C231.12 241.411 231.953 250.895 231.953 250.895C231.953 250.895 250.505 321.108 319.822 338.803Z" fill="white"/>
</svg>
