<svg width="68" height="88" viewBox="0 0 68 88" fill="none" xmlns="http://www.w3.org/2000/svg">
<path d="M16.8846 62.0769C17.9108 59.6141 19.8788 58.5 21.8125 58.5C23.7634 58.5 25.8924 59.6389 27.1584 62.1708C27.5288 62.9118 28.4298 63.2121 29.1708 62.8416C29.9118 62.4712 30.2121 61.5701 29.8416 60.8292C28.1076 57.3611 24.9866 55.5 21.8125 55.5C18.6212 55.5 15.5892 57.3859 14.1154 60.9231C13.7968 61.6878 14.1584 62.566 14.9231 62.8846C15.6878 63.2032 16.566 62.8416 16.8846 62.0769Z" fill="white"/>
<path d="M46.3125 58.5C44.3788 58.5 42.4108 59.6141 41.3846 62.0769C41.066 62.8416 40.1878 63.2032 39.4231 62.8846C38.6584 62.566 38.2968 61.6878 38.6154 60.9231C40.0892 57.3859 43.1212 55.5 46.3125 55.5C49.4866 55.5 52.6076 57.3611 54.3416 60.8292C54.7121 61.5701 54.4118 62.4712 53.6708 62.8416C52.9298 63.2121 52.0288 62.9118 51.6584 62.1708C50.3924 59.6389 48.2634 58.5 46.3125 58.5Z" fill="white"/>
<path fill-rule="evenodd" clip-rule="evenodd" d="M38 47C38 49.2091 36.2091 51 34 51C31.7909 51 30 49.2091 30 47C30 44.7909 31.7909 43 34 43C36.2091 43 38 44.7909 38 47ZM36 47C36 48.1046 35.1046 49 34 49C32.8954 49 32 48.1046 32 47C32 45.8954 32.8954 45 34 45C35.1046 45 36 45.8954 36 47Z" fill="white"/>
<path fill-rule="evenodd" clip-rule="evenodd" d="M8.61231 48.0708C9.46162 31.8491 15.0584 22.9291 23.0328 19.1703C23.2384 13.5159 24.4007 9.10326 26.1632 5.98791C28.1067 2.55283 30.909 0.521669 34.0198 0.562604C37.1177 0.603369 39.9026 2.69283 41.8384 6.13131C43.574 9.21436 44.73 13.524 44.9585 18.9796C52.784 22.3093 58.3004 30.5521 58.9382 48.8465C59.8978 46.9882 61.1414 46 62.5 46C65.5376 46 68 50.9396 68 59.5C68 68.0604 65.5376 74 62.5 74C60.4174 74 58.6052 71.2081 57.6716 66.6939C54.2732 82.5904 44.7351 88 33.5 88C22.6868 88 13.7403 81.5152 10.1687 67.414C9.19715 71.5031 7.46948 74 5.50003 74C2.46246 74 3.05176e-05 68.0604 3.05176e-05 59.5C3.05176e-05 50.9396 2.46246 46 5.50003 46C6.65525 46 7.72728 46.7144 8.61231 48.0708ZM33.5 17C30.9085 17 28.4242 17.3217 26.0954 18.0087C26.4038 13.3288 27.4321 9.83759 28.7743 7.46515C30.3934 4.60336 32.3411 3.54077 33.9803 3.56234C35.6323 3.58408 37.5974 4.71337 39.2242 7.60301C40.5576 9.97163 41.5787 13.4065 41.8965 17.9449C39.2672 17.2618 36.4417 17 33.5 17ZM8.00003 59.5C8.00003 63.5346 7.41433 66.7647 6.59374 68.8712C6.19484 69.8951 5.79472 70.5132 5.50003 70.8354C5.20535 70.5132 4.80522 69.8951 4.40632 68.8712C3.58573 66.7647 3.00003 63.5346 3.00003 59.5C3.00003 55.4576 3.58834 52.528 4.36514 50.7291C4.88577 49.5234 5.31915 49.1463 5.50003 49.0349C5.68091 49.1463 6.11429 49.5234 6.63492 50.7291C7.41172 52.528 8.00003 55.4576 8.00003 59.5ZM5.26586 71.0454C5.26586 71.0451 5.26946 71.0429 5.27665 71.0395C5.26946 71.044 5.26586 71.0457 5.26586 71.0454ZM5.72341 71.0395C5.7306 71.0429 5.73419 71.0451 5.7342 71.0454C5.7342 71.0457 5.73061 71.044 5.72341 71.0395ZM63.5937 68.8712C64.4143 66.7647 65 63.5346 65 59.5C65 55.4576 64.4117 52.528 63.6349 50.7291C63.1143 49.5234 62.6809 49.1463 62.5 49.0349C62.3191 49.1463 61.8857 49.5234 61.3651 50.7291C60.5883 52.528 60 55.4576 60 59.5C60 63.5346 60.5857 66.7647 61.4063 68.8712C61.8052 69.8951 62.2053 70.5132 62.5 70.8354C62.7947 70.5132 63.1948 69.8951 63.5937 68.8712ZM62.2658 71.0454C62.2658 71.0451 62.2694 71.0429 62.2766 71.0395L62.2694 71.0438L62.2658 71.0454ZM62.7234 71.0395L62.729 71.0423L62.7327 71.0444L62.7342 71.0454C62.7342 71.0456 62.7327 71.045 62.7298 71.0433L62.7234 71.0395ZM49.233 78.4467C53.21 73.7067 56 65.6476 56 52.5C56 45.192 55.2808 39.542 54.0684 35.1761C53.9696 35.0978 53.8792 35.0056 53.8 34.9C51.3622 31.6496 46.5865 31.5596 44.2206 34.8719C41.3721 38.8598 37.9792 40.9691 34.2974 40.8619C30.6784 40.7565 27.2764 38.5166 24.3421 34.9536C22.7798 33.0565 21.1604 32.2415 19.6029 32.2186C18.0223 32.1953 16.1399 32.9814 14.0607 35.0607C13.9676 35.1537 13.8654 35.232 13.7569 35.2955C12.336 39.7598 11.5 45.4164 11.5 52.5C11.5 64.3516 14.1459 72.4935 18.093 77.6036C21.9701 82.6232 27.3125 85 33.5 85C39.9181 85 45.3384 83.0886 49.233 78.4467ZM15.9777 30.0255C16.6215 28.8512 17.32 27.8029 18.0635 26.8714C21.8751 22.0959 27.181 20 33.5 20C40.1621 20 45.4989 21.42 49.2897 25.6814C50.3326 26.8538 51.2988 28.2852 52.1545 30.0319C48.589 28.6582 44.3122 29.5822 41.7794 33.1282C39.2708 36.6402 36.7137 37.931 34.3847 37.8631C31.9931 37.7935 29.3236 36.2834 26.6579 33.0465C24.7202 30.6936 22.3396 29.2585 19.6471 29.2189C18.4079 29.2007 17.18 29.4794 15.9777 30.0255Z" fill="white"/>
</svg>
