<svg width="88" height="52" viewBox="0 0 88 52" fill="none" xmlns="http://www.w3.org/2000/svg">
<path d="M1.99999 18V16.5C1.2079 16.5 0.552322 17.1159 0.502913 17.9064L1.99999 18ZM43.5 50V51.5H43.6041L43.7073 51.4856L43.5 50ZM86 18L87.4983 17.9298C87.4608 17.1295 86.8011 16.5 86 16.5V18ZM44 48.5C43.1716 48.5 42.5 49.1716 42.5 50C42.5 50.8284 43.1716 51.5 44 51.5V48.5ZM67.5 16.5C66.6715 16.5 66 17.1716 66 18C66 18.8284 66.6715 19.5 67.5 19.5V16.5ZM24.5 6L25.2895 4.7246C24.8996 4.4832 24.4206 4.43346 23.9894 4.58959C23.5581 4.74572 23.222 5.09056 23.077 5.52566L24.5 6ZM35 12.5L36.2862 13.2717C36.7083 12.5683 36.487 11.6564 35.7895 11.2246L35 12.5ZM31.5 22.5L30.8292 23.8416C31.2325 24.0433 31.705 24.0528 32.1161 23.8676C32.5272 23.6824 32.8332 23.3221 32.9494 22.8865L31.5 22.5ZM68 18L68.3638 19.4552C68.7785 19.3515 69.1293 19.0758 69.328 18.6974C69.5268 18.3189 69.5546 17.8736 69.4045 17.4733L68 18ZM63.5 6L64.9045 5.47331C64.7457 5.04994 64.4045 4.72077 63.9756 4.5774C63.5468 4.43403 63.0762 4.49175 62.6947 4.73451L63.5 6ZM52.5 13L51.6947 11.7345C51.0087 12.171 50.7954 13.0746 51.2138 13.7717L52.5 13ZM56.5 22.5L55.0874 23.0045C55.2294 23.4021 55.5324 23.7215 55.922 23.8842C56.3116 24.0469 56.7517 24.0378 57.1343 23.8593L56.5 22.5ZM43.5 2L44.3798 0.785087C43.8473 0.399533 43.1259 0.405578 42.6 0.8L43.5 2ZM1.99999 18C0.502913 17.9064 0.502844 17.9075 0.502768 17.9088C0.502733 17.9094 0.50265 17.9107 0.502581 17.9119C0.502443 17.9142 0.502279 17.917 0.502092 17.9202C0.501717 17.9268 0.501249 17.9353 0.50071 17.9457C0.499632 17.9666 0.498273 17.9951 0.496815 18.031C0.493901 18.1028 0.490594 18.2043 0.488373 18.3336C0.483931 18.5921 0.483821 18.9618 0.499913 19.4269C0.532076 20.3565 0.629091 21.671 0.88697 23.2428C1.40197 26.3819 2.5641 30.5801 5.16104 34.7878C10.4187 43.3066 21.326 51.5 43.5 51.5V48.5C22.174 48.5 12.3313 40.6934 7.71396 33.2122C5.37339 29.4199 4.31676 25.6181 3.84739 22.7572C3.61308 21.329 3.5265 20.1435 3.49812 19.3231C3.48394 18.9132 3.48432 18.5954 3.48793 18.3852C3.48974 18.28 3.49235 18.2019 3.49435 18.1526C3.49535 18.128 3.49619 18.1106 3.49671 18.1007C3.49696 18.0957 3.49714 18.0926 3.49721 18.0914C3.49724 18.0908 3.49725 18.0907 3.49723 18.0911C3.49721 18.0912 3.49718 18.0919 3.49717 18.0919C3.49712 18.0927 3.49707 18.0936 1.99999 18ZM1.99999 19.5H20.5V16.5H1.99999V19.5ZM86 18C84.5016 18.0702 84.5016 18.0694 84.5016 18.0686C84.5016 18.0685 84.5015 18.0679 84.5015 18.0677C84.5015 18.0673 84.5015 18.0675 84.5015 18.0681C84.5016 18.0692 84.5017 18.0723 84.5019 18.0773C84.5022 18.0872 84.5028 18.1046 84.5034 18.1292C84.5047 18.1785 84.5061 18.2566 84.5062 18.3617C84.5065 18.572 84.502 18.8898 84.4814 19.2998C84.4402 20.1202 84.335 21.306 84.0783 22.7347C83.5641 25.5964 82.4475 29.4014 80.045 33.1979C75.3023 40.6925 65.3257 48.5 44 48.5V51.5C66.1743 51.5 77.1977 43.3075 82.58 34.8021C85.24 30.5986 86.4671 26.4036 87.031 23.2653C87.3134 21.694 87.4309 20.3798 87.4776 19.4502C87.501 18.9852 87.5066 18.6155 87.5062 18.357C87.506 18.2278 87.5043 18.1262 87.5025 18.0544C87.5016 18.0185 87.5007 17.9899 87.4999 17.9691C87.4996 17.9587 87.4992 17.9502 87.499 17.9436C87.4988 17.9403 87.4987 17.9375 87.4986 17.9352C87.4985 17.9341 87.4985 17.9327 87.4985 17.9321C87.4984 17.9309 87.4983 17.9298 86 18ZM86 16.5H67.5V19.5H86V16.5ZM21.923 18.4743L25.923 6.47434L23.077 5.52566L19.077 17.5257L21.923 18.4743ZM23.7105 7.2754L34.2105 13.7754L35.7895 11.2246L25.2895 4.7246L23.7105 7.2754ZM33.7138 11.7283C32.856 13.1579 31.9329 15.8356 31.2565 17.9878C30.9075 19.0983 30.6066 20.1277 30.3931 20.879C30.2862 21.255 30.201 21.5621 30.1423 21.7759C30.113 21.8828 30.0903 21.9664 30.0748 22.0237C30.0671 22.0524 30.0611 22.0744 30.0571 22.0895C30.0551 22.0971 30.0535 22.1029 30.0524 22.1069C30.0519 22.1089 30.0515 22.1104 30.0512 22.1115C30.051 22.1121 30.0509 22.1125 30.0508 22.1129C30.0508 22.113 30.0507 22.1132 30.0507 22.1133C30.0507 22.1134 30.0506 22.1135 31.5 22.5C32.9494 22.8865 32.9493 22.8865 32.9493 22.8866C32.9493 22.8865 32.9493 22.8865 32.9494 22.8864C32.9494 22.8863 32.9495 22.8861 32.9496 22.8857C32.9498 22.885 32.9501 22.8838 32.9505 22.8822C32.9514 22.879 32.9527 22.874 32.9545 22.8673C32.9581 22.8539 32.9636 22.8335 32.9709 22.8066C32.9854 22.7528 33.0071 22.6728 33.0354 22.5698C33.092 22.3637 33.1747 22.0654 33.2788 21.6991C33.4872 20.966 33.78 19.9642 34.1185 18.8872C34.8171 16.6644 35.644 14.3421 36.2862 13.2717L33.7138 11.7283ZM31.5 22.5C32.1708 21.1584 32.1707 21.1583 32.1706 21.1582C32.1705 21.1582 32.1704 21.1581 32.1702 21.158C32.1699 21.1579 32.1695 21.1577 32.1689 21.1574C32.1679 21.1569 32.1664 21.1562 32.1645 21.1552C32.1607 21.1533 32.1553 21.1506 32.1482 21.1471C32.134 21.14 32.1132 21.1297 32.0862 21.1163C32.0322 21.0896 31.9532 21.0506 31.8516 21.0008C31.6486 20.9012 31.3551 20.7585 30.9909 20.5843C30.263 20.2362 29.25 19.7613 28.1092 19.2543C25.8586 18.254 23.003 17.0796 20.8638 16.5448L20.1362 19.4552C21.997 19.9204 24.6414 20.996 26.8908 21.9957C28 22.4887 28.987 22.9513 29.6966 23.2907C30.0511 23.4603 30.3358 23.5988 30.5312 23.6945C30.6288 23.7424 30.7041 23.7796 30.7546 23.8046C30.7799 23.8171 30.7989 23.8266 30.8114 23.8328C30.8177 23.8359 30.8223 23.8382 30.8253 23.8397C30.8268 23.8404 30.8279 23.841 30.8285 23.8413C30.8288 23.8415 30.829 23.8416 30.8292 23.8416C30.8292 23.8417 30.8292 23.8417 30.8293 23.8417C30.8292 23.8417 30.8292 23.8416 31.5 22.5ZM69.4045 17.4733L64.9045 5.47331L62.0955 6.52669L66.5955 18.5267L69.4045 17.4733ZM62.6947 4.73451L51.6947 11.7345L53.3053 14.2655L64.3053 7.26549L62.6947 4.73451ZM51.2138 13.7717C51.889 14.8972 52.8462 17.154 53.6669 19.2373C54.0684 20.2566 54.4241 21.1999 54.6795 21.8887C54.8071 22.2328 54.9095 22.5129 54.9798 22.7064C55.0149 22.8031 55.042 22.8782 55.0602 22.9289C55.0693 22.9542 55.0762 22.9734 55.0808 22.9861C55.0831 22.9925 55.0848 22.9972 55.0859 23.0003C55.0864 23.0018 55.0868 23.0029 55.0871 23.0037C55.0872 23.004 55.0873 23.0043 55.0873 23.0044C55.0874 23.0045 55.0874 23.0045 55.0874 23.0045C55.0874 23.0045 55.0874 23.0045 56.5 22.5C57.9126 21.9955 57.9126 21.9954 57.9125 21.9953C57.9125 21.9952 57.9125 21.9951 57.9124 21.995C57.9123 21.9947 57.9122 21.9943 57.912 21.9938C57.9116 21.9928 57.9111 21.9914 57.9105 21.9896C57.9092 21.9859 57.9073 21.9806 57.9048 21.9736C57.8998 21.9597 57.8925 21.9393 57.8829 21.9127C57.8638 21.8596 57.8357 21.7818 57.7995 21.6823C57.7273 21.4832 57.6226 21.1969 57.4924 20.8457C57.2321 20.1439 56.8691 19.1809 56.4581 18.1377C55.6538 16.096 54.611 13.6028 53.7862 12.2283L51.2138 13.7717ZM56.5 22.5C57.1343 23.8593 57.1343 23.8593 57.1343 23.8593C57.1343 23.8593 57.1343 23.8593 57.1344 23.8592C57.1346 23.8592 57.1348 23.859 57.1352 23.8589C57.1359 23.8585 57.1371 23.858 57.1388 23.8572C57.142 23.8557 57.1471 23.8533 57.1539 23.8502C57.1675 23.8438 57.1881 23.8343 57.2153 23.8217C57.2697 23.7965 57.3507 23.7591 57.4555 23.7111C57.6651 23.6149 57.97 23.4759 58.3488 23.3059C59.1067 22.9656 60.1581 22.5018 61.3321 22.0075C63.7103 21.0061 66.4887 19.924 68.3638 19.4552L67.6362 16.5448C65.5113 17.076 62.5397 18.2439 60.1679 19.2425C58.9669 19.7482 57.8933 20.2219 57.12 20.5691C56.7331 20.7428 56.4208 20.8851 56.2047 20.9843C56.0966 21.0338 56.0125 21.0726 55.9551 21.0992C55.9264 21.1125 55.9044 21.1227 55.8894 21.1297C55.8819 21.1332 55.8761 21.1359 55.8721 21.1377C55.8702 21.1386 55.8686 21.1393 55.8675 21.1399C55.867 21.1401 55.8666 21.1403 55.8663 21.1404C55.8661 21.1405 55.866 21.1406 55.8659 21.1406C55.8658 21.1407 55.8657 21.1407 56.5 22.5ZM42.6 0.8C38.8483 3.61376 35.652 7.99275 33.2877 12.9303C30.9175 17.8804 29.334 23.494 28.8803 28.8739C28.4282 34.235 29.0881 39.4983 31.3561 43.642C33.6643 47.8594 37.5855 50.8065 43.3227 51.4895L43.6773 48.5105C38.9145 47.9435 35.8357 45.5781 33.9877 42.2017C32.0994 38.7517 31.4468 34.14 31.8697 29.1261C32.291 24.131 33.77 18.8695 35.9935 14.2259C38.223 9.56975 41.1517 5.63624 44.4 3.2L42.6 0.8ZM43.7073 51.4856C49.543 50.6713 53.5462 47.677 55.918 43.4442C58.2529 39.277 58.9477 34.0258 58.4946 28.6857C57.5934 18.0636 52.0738 6.35659 44.3798 0.785087L42.6202 3.21491C49.4263 8.14341 54.6566 18.9364 55.5054 28.9393C55.9273 33.9117 55.2471 38.5042 53.3008 41.9777C51.3913 45.3855 48.207 47.8287 43.2927 48.5144L43.7073 51.4856Z" fill="white"/>
</svg>
