<svg width="84" height="79" viewBox="0 0 84 79" fill="none" xmlns="http://www.w3.org/2000/svg">
<path fill-rule="evenodd" clip-rule="evenodd" d="M28.3107 20.4774C24.2375 21.9116 19.3224 26.0492 15.0905 30.5299C14.5217 31.1322 13.5723 31.1593 12.9701 30.5905C12.3678 30.0217 12.3407 29.0723 12.9095 28.4701C17.1776 23.9508 22.5125 19.3384 27.3143 17.6476C29.7452 16.7917 32.2937 16.5983 34.5027 17.8621C36.7019 19.1202 38.1695 21.5982 38.9643 25.1746C38.988 25.2814 39 25.3906 39 25.5C39 26.9364 38.2405 28.5869 37.3909 30.0501C36.4979 31.5881 35.3259 33.2119 34.1813 34.6745C33.4767 35.5747 32.7734 36.4254 32.1373 37.1719C34.9361 37.0686 37.608 37.2933 40.1294 37.7917C41.6422 34.7338 44.2722 31.6833 47.4557 29.1461C51.057 26.2758 55.4885 23.9639 60.0764 23.032C64.6802 22.0968 69.5103 22.5435 73.742 25.3068C77.9664 28.0653 81.3832 32.9944 83.4477 40.6074C83.4759 40.7112 83.4928 40.8177 83.4981 40.9251C83.6286 43.535 83.4374 46.014 82.8533 48.153C82.2711 50.2847 81.2698 52.1783 79.7046 53.4696C76.4056 56.1912 71.5758 55.6011 65.6806 51.7564C64.9867 51.3039 64.791 50.3745 65.2436 49.6806C65.6961 48.9867 66.6255 48.791 67.3194 49.2436C72.9242 52.8989 76.0944 52.5588 77.7954 51.1554C78.7302 50.3842 79.4789 49.1216 79.9592 47.3626C80.4268 45.6504 80.613 43.5613 80.5095 41.2359C78.5715 34.1941 75.5084 30.0432 72.1017 27.8187C68.6772 25.5825 64.6948 25.1551 60.6736 25.9719C56.6365 26.792 52.6305 28.858 49.3255 31.4921C46.6031 33.6619 44.4382 36.1511 43.1272 38.5314C54.2843 41.849 61.9467 50.6294 63.6613 59.2213C64.5697 63.7736 63.813 68.3572 60.8827 71.9572C57.9578 75.5505 53.0539 77.936 46.1206 78.4952C46.0609 78.5 46.001 78.5012 45.9412 78.4989C34.4127 78.0468 28.5062 75.5712 23.7589 73.5815C23.136 73.3204 22.533 73.0677 21.94 72.8291C19.4456 71.8252 17.1906 71.0976 14.296 70.9752C11.3801 70.8519 7.713 71.3399 2.43408 72.9358C1.6411 73.1756 0.803921 72.7271 0.564183 71.9341C0.324445 71.1411 0.772936 70.3039 1.56592 70.0642C7.037 68.4101 11.0573 67.8356 14.4228 67.9779C17.8094 68.1211 20.4294 68.9873 23.06 70.046C23.668 70.2907 24.2797 70.547 24.9064 70.8096C29.562 72.7605 35.0443 75.0578 45.9684 75.4976C52.3022 74.9699 56.3062 72.8274 58.556 70.0633C60.811 67.2931 61.4901 63.671 60.7193 59.8083C59.1651 52.02 51.7379 43.6025 40.654 40.9751C37.0371 40.1178 33.029 39.8779 28.7089 40.4854C28.0775 40.5742 27.459 40.2541 27.1668 39.6874C26.8746 39.1208 26.9726 38.4314 27.411 37.9685L27.4119 37.9676L27.4159 37.9633L27.4334 37.9447L27.505 37.8683C27.5684 37.8005 27.6624 37.6993 27.7827 37.5686C28.0232 37.307 28.3683 36.9274 28.7831 36.4589C29.614 35.5203 30.7181 34.232 31.8187 32.8255C32.9241 31.4132 34.0021 29.9119 34.7966 28.5437C35.5697 27.2122 35.9406 26.2264 35.9934 25.6392C35.2847 22.592 34.1502 21.1167 33.013 20.4661C31.8626 19.8079 30.3173 19.7708 28.3107 20.4774Z" fill="white"/>
<path fill-rule="evenodd" clip-rule="evenodd" d="M73.6482 2.14728C74.3953 2.50526 74.7107 3.40109 74.3527 4.14818C71.9275 9.20958 68.5971 12.6045 64.7589 14.6981C60.9365 16.7831 56.7018 17.5284 52.5218 17.4497C44.202 17.2932 35.8698 13.8712 30.7283 10.7862C30.0179 10.36 29.7875 9.43863 30.2138 8.72826C30.64 8.01789 31.5614 7.78754 32.2717 8.21376C37.1302 11.1288 44.948 14.3068 52.5782 14.4503C56.3732 14.5216 60.0635 13.8419 63.3224 12.0644C66.5654 10.2955 69.4725 7.39042 71.6473 2.85182C72.0053 2.10473 72.9011 1.7893 73.6482 2.14728Z" fill="white"/>
<path fill-rule="evenodd" clip-rule="evenodd" d="M54.5 6C55.3284 6 56 5.32843 56 4.5C56 3.67157 55.3284 3 54.5 3C53.6716 3 53 3.67157 53 4.5C53 5.32843 53.6716 6 54.5 6ZM54.5 9C56.9853 9 59 6.98528 59 4.5C59 2.01472 56.9853 0 54.5 0C52.0147 0 50 2.01472 50 4.5C50 6.98528 52.0147 9 54.5 9Z" fill="white"/>
</svg>
