<svg width="600" height="600" viewBox="0 0 600 600" fill="none" xmlns="http://www.w3.org/2000/svg">
<path fill-rule="evenodd" clip-rule="evenodd" d="M315.431 115.428C331.638 95.7117 359.31 80.6109 383.029 79C387.061 105.97 376.032 132.258 361.484 150.808C346.383 170.296 320.53 185.506 295.27 185.506H293.373C288.629 159.801 300.725 133.296 315.431 115.428ZM341.657 193.42C355.199 188.28 370.084 182.63 391.804 182.63L391.706 182.67C421.818 182.67 453.759 199.154 476.489 227.616C402.023 268.54 414.12 375.284 489.416 403.864C479.138 426.94 474.157 437.179 460.756 457.577C442.137 485.94 415.938 521.32 383.325 521.666H382.732C369.706 521.666 361.049 517.69 351.727 513.408C340.849 508.411 329.065 502.998 308.375 502.998H307.782C286.785 503.115 274.651 508.546 263.501 513.537C253.937 517.818 245.098 521.775 232.011 521.775H231.418C198.805 521.429 173.94 489.498 155.321 461.026C103.269 381.49 97.8135 288.128 129.952 238.556C152.84 203.404 188.883 182.768 222.682 182.768C240.782 182.768 255.357 187.955 269.228 192.891C281.818 197.371 293.828 201.644 307.366 201.644C319.99 201.644 330.356 197.71 341.657 193.42Z" fill="black"/>
</svg>
