<svg width="91" height="84" viewBox="0 0 91 84" fill="none" xmlns="http://www.w3.org/2000/svg">
<path fill-rule="evenodd" clip-rule="evenodd" d="M20.7174 80.5H87.2854C84.0674 59.1151 68.9559 48.7545 54.0058 48.8125C39.0504 48.8705 23.9411 59.3537 20.7174 80.5ZM53.9942 45.8125C70.9086 45.7469 87.6533 57.8437 90.4896 81.8238C90.5399 82.2494 90.4059 82.6761 90.1212 82.9964C89.8366 83.3167 89.4285 83.5 89 83.5H19C18.5712 83.5 18.1628 83.3164 17.8781 82.9957C17.5935 82.675 17.4597 82.2477 17.5106 81.8219C20.3479 58.0918 37.09 45.878 53.9942 45.8125Z" fill="white"/>
<path fill-rule="evenodd" clip-rule="evenodd" d="M9.93934 14.9393C10.2206 14.658 10.6022 14.5 11 14.5C13.2751 14.5 15.1565 15.0972 16.6682 16.1278C18.1687 17.1508 19.2245 18.5452 19.9526 20.0254C21.3901 22.948 21.6339 26.3674 21.4437 28.6259C21.3741 29.4514 20.6486 30.0642 19.8231 29.9947C18.9976 29.9252 18.3847 29.1996 18.4542 28.3741C18.615 26.4659 18.3849 23.6353 17.2606 21.3496C16.7078 20.2257 15.9607 19.2763 14.9783 18.6066C14.3124 18.1526 13.5007 17.801 12.5 17.6247L12.5 42.9992C12.5 42.9992 12.5 43 11 43C9.5 43 9.5 42.9998 9.5 42.9998V16C9.5 15.6022 9.65803 15.2206 9.93934 14.9393ZM11 43L9.5 42.9998C9.5 43.8282 10.1716 44.5 11 44.5C11.8284 44.5 12.5 43.8276 12.5 42.9992L11 43Z" fill="white"/>
<path fill-rule="evenodd" clip-rule="evenodd" d="M6.5 47C8.15685 47 9.5 45.6569 9.5 44C9.5 42.3431 8.15685 41 6.5 41C4.84315 41 3.5 42.3431 3.5 44C3.5 45.6569 4.84315 47 6.5 47ZM6.5 50C9.81371 50 12.5 47.3137 12.5 44C12.5 40.6863 9.81371 38 6.5 38C3.18629 38 0.5 40.6863 0.5 44C0.5 47.3137 3.18629 50 6.5 50Z" fill="white"/>
<path fill-rule="evenodd" clip-rule="evenodd" d="M53.5 40C63.7173 40 72 31.7173 72 21.5C72 11.2827 63.7173 3 53.5 3C43.2827 3 35 11.2827 35 21.5C35 31.7173 43.2827 40 53.5 40ZM53.5 43C65.3741 43 75 33.3741 75 21.5C75 9.62588 65.3741 0 53.5 0C41.6259 0 32 9.62588 32 21.5C32 33.3741 41.6259 43 53.5 43Z" fill="white"/>
<path fill-rule="evenodd" clip-rule="evenodd" d="M61.0303 19.312C62.622 19.3633 64.2791 20.2942 65.1056 21.9472C65.3526 22.4412 65.9532 22.6414 66.4472 22.3944C66.9412 22.1474 67.1414 21.5468 66.8944 21.0528C65.7209 18.7058 63.378 17.3867 61.0947 17.313C58.7689 17.238 56.4575 18.4652 55.5513 21.1838C55.3767 21.7077 55.6598 22.274 56.1838 22.4487C56.7077 22.6233 57.274 22.3402 57.4487 21.8162C58.0425 20.0348 59.4811 19.262 61.0303 19.312ZM45.0303 19.312C46.622 19.3633 48.2791 20.2942 49.1056 21.9472C49.3526 22.4412 49.9532 22.6414 50.4472 22.3944C50.9412 22.1474 51.1414 21.5468 50.8944 21.0528C49.7209 18.7058 47.378 17.3867 45.0947 17.313C42.7689 17.238 40.4575 18.4652 39.5513 21.1838C39.3767 21.7077 39.6598 22.274 40.1838 22.4487C40.7077 22.6233 41.274 22.3402 41.4487 21.8162C42.0425 20.0348 43.4811 19.262 45.0303 19.312Z" fill="white"/>
</svg>
