<svg width="600" height="600" viewBox="0 0 600 600" fill="none" xmlns="http://www.w3.org/2000/svg">
<mask id="mask0_21_313" style="mask-type:alpha" maskUnits="userSpaceOnUse" x="60" y="60" width="480" height="480">
<path d="M540 300C540 432.548 432.548 540 300 540C167.452 540 60 432.548 60 300C60 167.452 167.452 60 300 60C432.548 60 540 167.452 540 300Z" fill="#D9D9D9"/>
</mask>
<g mask="url(#mask0_21_313)">
<path d="M-183.384 64.7168V540.066H767.313V64.7168H-183.384Z" fill="#012169"/>
<path d="M-183.384 64.7168L767.313 540.066ZM767.313 64.7168L-183.384 540.066Z" fill="black"/>
<path fill-rule="evenodd" clip-rule="evenodd" d="M185.673 302.391L-204.643 107.233L-162.127 22.2L291.964 249.245L746.055 22.2L788.571 107.233L398.255 302.391L788.571 497.549L746.055 582.582L291.964 355.537L-162.127 582.582L-204.643 497.549L185.673 302.391Z" fill="white"/>
<mask id="mask1_21_313" style="mask-type:luminance" maskUnits="userSpaceOnUse" x="-184" y="64" width="952" height="477">
<path d="M291.965 302.391H767.313V540.066L291.965 302.391ZM291.965 302.391V540.066H-183.384L291.965 302.391ZM291.965 302.391H-183.384V64.7168L291.965 302.391ZM291.965 302.391V64.7168H767.313L291.965 302.391Z" fill="white"/>
</mask>
<g mask="url(#mask1_21_313)">
<path d="M-183.384 64.7168L767.313 540.066ZM767.313 64.7168L-183.384 540.066Z" fill="black"/>
<path fill-rule="evenodd" clip-rule="evenodd" d="M221.104 302.391L-197.557 93.061L-169.212 36.3724L291.964 266.961L753.141 36.3724L781.485 93.061L362.825 302.391L781.485 511.721L753.141 568.41L291.964 337.822L-169.212 568.41L-197.557 511.721L221.104 302.391Z" fill="#C8102E"/>
</g>
<path d="M291.965 64.7168V540.066ZM-183.384 302.391H767.313Z" fill="black"/>
<path fill-rule="evenodd" clip-rule="evenodd" d="M212.74 223.166V64.7168H371.189V223.166H767.313V381.616H371.189V540.066H212.74V381.616H-183.384V223.166H212.74Z" fill="white"/>
<path d="M291.965 64.7168V540.066ZM-183.384 302.391H767.313Z" fill="black"/>
<path fill-rule="evenodd" clip-rule="evenodd" d="M244.43 254.856V64.7168H339.499V254.856H767.313V349.926H339.499V540.066H244.43V349.926H-183.384V254.856H244.43Z" fill="#C8102E"/>
</g>
</svg>
